# xmcd
#
# Track frame offsets:
# 150
# 450
# 27129
# 49791
# 71932
# 94644
# 116031
# 138842
# 164141
# 189466
# 210856
# 233215
# 255870
# 278303
#
# Disc length: 4058 seconds
#
#
# Revision: 1
# Processed by: cddbd v1.5.2PL0 Copyright (c) Steve Scherf et al.
# Submitted via: FreeRIP 2.945 
#
DISCID=b10fd80e
DTITLE=Henning Mankell - 02/15
DYEAR=1900
DGENRE=
TTITLE0=02.01
TTITLE1=02.02
TTITLE2=02.03
TTITLE3=02.04
TTITLE4=02.05
TTITLE5=02.06
TTITLE6=02.07
TTITLE7=02.08
TTITLE8=02.07
TTITLE9=02.10
TTITLE10=02.11
TTITLE11=02.12
TTITLE12=02.13
TTITLE13=02.14
EXTD=
EXTT0=
EXTT1=
EXTT2=
EXTT3=
EXTT4=
EXTT5=
EXTT6=
EXTT7=
EXTT8=
EXTT9=
EXTT10=
EXTT11=
EXTT12=
EXTT13=
PLAYORDER=
